<svg xmlns="http://www.w3.org/2000/svg" viewBox="0 0 46 46" width="46" height="46">
  <defs>
    <path id="a" d="M44.5 20H24v6h11.8C34.7 29 30.6 33 24 33c-6 0-11-5-11-11s5-11 11-11c3 0 5.6 1 7.6 2.6l4.6-4.5C34.7 5.4 29.7 3 24 3 12.9 3 4.5 11.4 4.5 22.5S12.9 42 24 42c11.4 0 20.5-9 20.5-21 0-1.4-.1-2-.2-3z"/>
  </defs>
  <g fill="none" fill-rule="evenodd">
    <path d="M0 0h46v46H0z"/>
    <g transform="translate(1 1)">
      <path d="M44 20c0-1.2-.1-2.3-.3-3.3H24v6.2h11.6c-.5 2.7-2.4 5-5.2 6.5v5.4h8.4C41.3 35.3 44 28 44 20z" fill="#4285F4"/>
      <path d="M24 44c6.1 0 11.1-2 14.8-5.4l-7-5.8c-2 1.4-4.6 2.2-7.8 2.2-6.6 0-11.7-4.6-13.6-10.8H2.3v6.8C6 38.9 14.6 44 24 44z" fill="#34A853"/>
      <path d="M10.4 26.9c-0.5-1.6-.8-3.3-.8-5.1s.3-3.5.8-5.1V10H2.3C0.8 13.1 0 16.5 0 20s.8 6.9 2.3 10l8.1-3.1z" fill="#FBBC05"/>
      <path d="M24 9.5c3.4 0 6.4 1.2 8.8 3.5l6.6-6.6C35.1 2.7 29.9 0 24 0 14.6 0 6 5.1 2.3 12.7l8.1 6.7C12.3 13.9 17.4 9.5 24 9.5z" fill="#EA4335"/>
      <path d="M0 0h46v46H0z" fill="none"/>
    </g>
  </g>
</svg>
